PathFileType	4	(X/Y/Z)	./resultDataOpenSim/trcMotMarkerGrf/sub10/qtm-13-06.trc
DataRate	CameraRate	NumFrames	NumMarkers	Units	OrigDataRate	OrigDataStartFrame	OrigNumFrames
250.000000	250.000000	10	24	m	250.000000	257	513
Frame#	Time	L.Toe.Tip			R.Toe.Tip			L.Ankle.Lat			R.Ankle.Lat			L.Ankle.Med			R.Ankle.Med			L.Heel			R.Heel			L.Knee.Lat			R.Knee.Lat			L.Knee.Med			R.Knee.Med			L.Thigh.Upper			R.Thigh.Upper			L.ASIS			R.ASIS			V.Sacral			L.Acromium			R.Acromium			C7			L.Elbow			R.Elbow			L.Wrist.Lat			R.Wrist.Lat
		X1	Y1	Z1	X2	Y2	Z2	X3	Y3	Z3	X4	Y4	Z4	X5	Y5	Z5	X6	Y6	Z6	X7	Y7	Z7	X8	Y8	Z8	X9	Y9	Z9	X10	Y10	Z10	X11	Y11	Z11	X12	Y12	Z12	X13	Y13	Z13	X14	Y14	Z14	X15	Y15	Z15	X16	Y16	Z16	X17	Y17	Z17	X18	Y18	Z18	X19	Y19	Z19	X20	Y20	Z20	X21	Y21	Z21	X22	Y22	Z22	X23	Y23	Z23	X24	Y24	Z24

257	1.024	0.060027618	-0.0089884045	-0.12766935	0.49564645	0.11330173	0.087417493	-0.060840484	0.042550366	-0.13713994	0.35434096	0.13522474	0.087286351	-0.032149072	0.055607724	-0.052946828	0.3957791	0.14948839	0.006152883	-0.13038049	0.035333987	-0.087416011	0.31642319	0.10188376	0.033105997	0.19576235	0.31941328	-0.18129447	0.42654169	0.5188189	0.073118084	0.20993135	0.30072812	-0.06058906	0.44873554	0.52435344	-0.054487906	0.098241895	0.68945864	-0.25775452	0.11053158	0.72370055	0.13042284	0.14879632	0.79628632	-0.19911569	0.16508997	0.80375742	0.05024072	-0.053778194	0.82329429	-0.05407019	0.17379803	1.2588656	-0.24299614	0.13618547	1.2763633	0.074349312	0.07072876	1.3016657	-0.10083846	0.15013414	0.94580403	-0.39702987	-0.026909024	0.99659533	0.19462934	0.36013336	0.85422349	-0.49100211	0.0073352917	0.84943296	0.38917077
258	1.028	0.060069275	-0.0089741689	-0.12768361	0.51510074	0.11260665	0.085252518	-0.060435036	0.04321409	-0.1370723	0.37328653	0.1316607	0.086819664	-0.031579183	0.056156152	-0.052847133	0.4136561	0.14749905	0.0055626878	-0.12998251	0.0364081	-0.087255446	0.33559488	0.097887031	0.032804525	0.19758183	0.3185494	-0.18159624	0.43279468	0.51864666	0.07303664	0.21204181	0.2998242	-0.060902561	0.45409436	0.52459709	-0.054469212	0.10176432	0.68937129	-0.25745597	0.11639936	0.72489308	0.13095127	0.15354614	0.79652173	-0.19929326	0.17123341	0.80428477	0.050674243	-0.048012977	0.82372352	-0.053532873	0.17941213	1.2594101	-0.24303454	0.14246322	1.2766596	0.074348194	0.076663256	1.3021966	-0.10064302	0.15760003	0.94609566	-0.39696315	-0.022580693	0.99786844	0.19379549	0.36941748	0.85688172	-0.48951258	0.0094187992	0.85021316	0.38836077
259	1.032	0.060111301	-0.0089628043	-0.12769798	0.53432317	0.11186656	0.082903759	-0.060061059	0.043843484	-0.13700303	0.39207264	0.12830061	0.08632636	-0.031056761	0.056665477	-0.052746797	0.43130674	0.14563022	0.0049695341	-0.12961062	0.03742583	-0.087098851	0.35453873	0.094192034	0.032429387	0.19935454	0.31773084	-0.18185907	0.43885319	0.51816379	0.072980313	0.21392406	0.29896725	-0.060990739	0.45937904	0.52447141	-0.054361796	0.10533933	0.68935226	-0.25708509	0.12225583	0.72609365	0.13141981	0.15842361	0.79681251	-0.1993807	0.17745111	0.8049335	0.051091096	-0.042228459	0.8242884	-0.052967553	0.18502932	1.2600424	-0.24305863	0.14869194	1.2770288	0.074375192	0.082593727	1.302812	-0.10044653	0.16502313	0.94646612	-0.39683608	-0.018450312	0.99926971	0.19299323	0.37861308	0.85952579	-0.48793718	0.011617047	0.85098743	0.38741728
260	1.036	0.060151002	-0.0089501068	-0.12771179	0.55329459	0.11112073	0.080358016	-0.059715575	0.044441936	-0.13693344	0.41067712	0.12514073	0.085805317	-0.030593715	0.057138783	-0.052664519	0.44864087	0.14387521	0.004350225	-0.12926985	0.03838598	-0.086955728	0.37318687	0.090788642	0.032063246	0.20103699	0.31696533	-0.18209158	0.44478652	0.51737076	0.072970358	0.21553721	0.29819252	-0.060957766	0.46463415	0.52399098	-0.054195795	0.10896385	0.68940953	-0.25667447	0.12811689	0.72729954	0.13182	0.16336976	0.79711666	-0.19943961	0.18374615	0.80570711	0.051474152	-0.036346588	0.82494418	-0.052397563	0.19064816	1.2607636	-0.2430614	0.1548695	1.2774782	0.074430723	0.08852628	1.303513	-0.10024681	0.17240767	0.94691084	-0.39664552	-0.014468845	1.0007479	0.19218831	0.38769016	0.86217864	-0.48627285	0.013880106	0.8517639	0.38635798
261	1.04	0.0601852	-0.0089367547	-0.12772515	0.57199812	0.11039178	0.077617637	-0.059390561	0.04499909	-0.13686893	0.42911414	0.12214688	0.085238822	-0.030178492	0.057579537	-0.052607349	0.46562931	0.14223262	0.0037176088	-0.1289615	0.039283604	-0.086839479	0.3915242	0.087652796	0.031715373	0.20260083	0.31626446	-0.18230246	0.45066806	0.51629474	0.073015808	0.21705241	0.29749024	-0.061013936	0.46988933	0.52317152	-0.053998942	0.11263349	0.68955107	-0.25624716	0.13400531	0.72851399	0.13214478	0.16834429	0.79741699	-0.19952101	0.19012325	0.80660327	0.051809761	-0.030304073	0.82564453	-0.051857113	0.19626585	1.2615725	-0.24304367	0.16101481	1.2780158	0.074504335	0.094465818	1.3042934	-0.10003621	0.17975082	0.94743505	-0.39639194	-0.010518362	1.0021849	0.19130119	0.3966303	0.86485797	-0.48451311	0.016201672	0.85254593	0.38519374
262	1.044	0.060211355	-0.0089253999	-0.12773931	0.59041606	0.10968903	0.074701192	-0.059081568	0.045507457	-0.13681862	0.44736727	0.11928869	0.084618227	-0.02980147	0.057980928	-0.052579455	0.48229945	0.1407137	0.0030867848	-0.12868398	0.040113813	-0.086757796	0.40955776	0.084753495	0.031354336	0.20403242	0.31564088	-0.18249612	0.45652721	0.51497808	0.07311426	0.21867217	0.29681017	-0.061269979	0.47515403	0.52202739	-0.053785367	0.11634093	0.68978049	-0.25577405	0.13994645	0.72974306	0.13238559	0.17337321	0.79775123	-0.19961565	0.19658705	0.8076217	0.052088677	-0.024108396	0.82637655	-0.051341989	0.20188433	1.2624654	-0.24301292	0.16714309	1.2786424	0.074590306	0.1004139	1.3051482	-0.099808821	0.18704402	0.94804613	-0.3960809	-0.0064718786	1.0035047	0.19026497	0.40543661	0.86755896	-0.48265957	0.018599927	0.85333166	0.38392519
263	1.048	0.060227285	-0.0089170893	-0.1277558	0.60850732	0.10904777	0.071644783	-0.058792339	0.045977527	-0.13679011	0.4653447	0.11658734	0.083959579	-0.029467936	0.058334941	-0.052579161	0.49868297	0.13933522	0.002442455	-0.12843496	0.040880568	-0.086699659	0.42727176	0.082062417	0.030976197	0.20532655	0.31510532	-0.18266962	0.46233898	0.51344885	0.073252871	0.22039809	0.29612549	-0.061664128	0.48042367	0.5205779	-0.053559253	0.12005342	0.69007877	-0.2551624	0.14595738	0.73098394	0.13253383	0.17850125	0.79816523	-0.19967733	0.20314392	0.80876845	0.052305467	-0.017844206	0.82716929	-0.050792871	0.20750869	1.2634408	-0.24297191	0.17324733	1.279354	0.074698363	0.10636874	1.3060781	-0.099564389	0.19428285	0.94873849	-0.3957115	-0.0022340167	1.0047268	0.18905899	0.4141183	0.87026285	-0.48071953	0.021090742	0.85411616	0.38255136
264	1.052	0.060232387	-0.0089110634	-0.127776	0.62619373	0.10855206	0.068499589	-0.058529547	0.046428228	-0.13678585	0.48291793	0.11410194	0.083296753	-0.029186359	0.058651744	-0.052589256	0.51477285	0.13809943	0.001755283	-0.12820953	0.041603016	-0.086635001	0.44462929	0.07955382	0.030601577	0.20648338	0.31466254	-0.18281436	0.4680599	0.51171759	0.073407842	0.22204756	0.29546042	-0.062057186	0.48568307	0.51884825	-0.05332255	0.12373183	0.69041895	-0.25431955	0.15204619	0.73222577	0.13258751	0.18373565	0.79867282	-0.19967463	0.20980111	0.81005218	0.052456786	-0.011567987	0.82804418	-0.050174955	0.21314557	1.2645002	-0.24291261	0.17931041	1.2801479	0.074840595	0.11232808	1.3070856	-0.099305365	0.20147402	0.94949502	-0.39525774	0.0022117563	1.0059112	0.1877056	0.42267884	0.87295183	-0.47870017	0.023683021	0.8548933	0.38107598
265	1.056	0.060228486	-0.0089059634	-0.12780008	0.64338938	0.10830886	0.065314441	-0.058294	0.046867364	-0.13680479	0.50002103	0.11184545	0.082631708	-0.02895252	0.058959279	-0.052585827	0.53051217	0.13698838	0.0010106791	-0.12799711	0.042306613	-0.08653908	0.46160236	0.077191393	0.030227456	0.20750662	0.31430764	-0.18292435	0.47366156	0.50978398	0.073550898	0.22347883	0.29485366	-0.062362659	0.49091416	0.51686058	-0.053077126	0.12739752	0.6908168	-0.25327271	0.1582204	0.73345987	0.13255277	0.18905791	0.79927011	-0.19961062	0.21656157	0.81147559	0.052540948	-0.0051632467	0.82895069	-0.049594483	0.21880413	1.2656447	-0.24282438	0.18532975	1.2810232	0.075017017	0.11829009	1.3081701	-0.099034634	0.20863189	0.95029893	-0.3946722	0.0067881946	1.0070984	0.18625228	0.43111884	0.87561636	-0.47660665	0.026383713	0.85565997	0.3795062
266	1.06	0.060218091	-0.0088989216	-0.12782678	0.66003305	0.10840796	0.062115562	-0.058078216	0.047288017	-0.1368448	0.5166779	0.10974663	0.081898221	-0.028748632	0.059277393	-0.052564567	0.54581912	0.13597903	0.00020639973	-0.12778791	0.042998801	-0.086429008	0.47818285	0.074924484	0.029814455	0.2084019	0.31403251	-0.18300149	0.47915001	0.50764795	0.073674852	0.2246862	0.2943286	-0.062575554	0.49611054	0.51462561	-0.052824177	0.13115046	0.69134098	-0.2521891	0.16449544	0.73468714	0.13244414	0.19445873	0.79995621	-0.19951133	0.22342145	0.81302862	0.05255693	0.0016546673	0.82977477	-0.049284211	0.22449213	1.2668732	-0.24270319	0.19131655	1.2819778	0.075221403	0.12425327	1.309329	-0.098754485	0.21576651	0.95113963	-0.39392039	0.011399643	1.0083	0.18474914	0.43944177	0.87825829	-0.47444141	0.029197268	0.85641802	0.37784972
